<?xml version="1.0" encoding="UTF-8" standalone="no"?>
<!DOCTYPE svg PUBLIC "-//W3C//DTD SVG 1.1//EN"
 "http://www.w3.org/Graphics/SVG/1.1/DTD/svg11.dtd">
<!-- Generated by graphviz version 14.1.1 (20251213.1925)
 -->
<!-- Title: RocqDeps Pages: 1 -->
<svg width="1500pt" height="1124pt"
 viewBox="0.00 0.00 1500.00 1124.00" xmlns="http://www.w3.org/2000/svg" xmlns:xlink="http://www.w3.org/1999/xlink">
<g id="graph0" class="graph" transform="scale(1 1) rotate(0) translate(4 1120)">
<title>RocqDeps</title>
<polygon fill="white" stroke="none" points="-4,4 -4,-1120 1496,-1120 1496,4 -4,4"/>
<!-- /Users/wuksh/Monotyper/_INPUT/ProofcaseExport/theories/D001/D001__API.v -->
<g id="node1" class="node">
<title>/Users/wuksh/Monotyper/_INPUT/ProofcaseExport/theories/D001/D001__API.v</title>
<polygon fill="white" stroke="black" points="347.25,-1116 212.75,-1116 212.75,-1080 347.25,-1080 347.25,-1116"/>
<text xml:space="preserve" text-anchor="middle" x="280" y="-1094.12" font-family="Times,serif" font-size="10.00">theories/D001/D001__API.v</text>
</g>
<!-- /Users/wuksh/Monotyper/_INPUT/ProofcaseExport/theories/D001/CIC__RA_Provability/R01__Proof_Theory_Input.v -->
<g id="node2" class="node">
<title>/Users/wuksh/Monotyper/_INPUT/ProofcaseExport/theories/D001/CIC__RA_Provability/R01__Proof_Theory_Input.v</title>
<polygon fill="white" stroke="black" points="501.62,-180 210.38,-180 210.38,-144 501.62,-144 501.62,-180"/>
<text xml:space="preserve" text-anchor="middle" x="356" y="-158.12" font-family="Times,serif" font-size="10.00">theories/D001/CIC__RA_Provability/R01__Proof_Theory_Input.v</text>
</g>
<!-- /Users/wuksh/Monotyper/_INPUT/ProofcaseExport/theories/D001/D001__API.v&#45;&gt;/Users/wuksh/Monotyper/_INPUT/ProofcaseExport/theories/D001/CIC__RA_Provability/R01__Proof_Theory_Input.v -->
<g id="edge1" class="edge">
<title>/Users/wuksh/Monotyper/_INPUT/ProofcaseExport/theories/D001/D001__API.v&#45;&gt;/Users/wuksh/Monotyper/_INPUT/ProofcaseExport/theories/D001/CIC__RA_Provability/R01__Proof_Theory_Input.v</title>
<path fill="none" stroke="black" d="M212.58,-1091.86C129.72,-1081.45 0,-1049.98 0,-955 0,-955 0,-955 0,-305 0,-259.41 13.67,-242.16 51,-216 75.7,-198.69 137.39,-186.37 198.88,-177.99"/>
<polygon fill="black" stroke="black" points="198.99,-181.51 208.44,-176.72 198.07,-174.57 198.99,-181.51"/>
</g>
<!-- /Users/wuksh/Monotyper/_INPUT/ProofcaseExport/theories/D001/CIC__RA_Provability/R02__Carryless_Godel_Numbering.v -->
<g id="node3" class="node">
<title>/Users/wuksh/Monotyper/_INPUT/ProofcaseExport/theories/D001/CIC__RA_Provability/R02__Carryless_Godel_Numbering.v</title>
<polygon fill="white" stroke="black" points="433,-396 105,-396 105,-360 433,-360 433,-396"/>
<text xml:space="preserve" text-anchor="middle" x="269" y="-374.12" font-family="Times,serif" font-size="10.00">theories/D001/CIC__RA_Provability/R02__Carryless_Godel_Numbering.v</text>
</g>
<!-- /Users/wuksh/Monotyper/_INPUT/ProofcaseExport/theories/D001/D001__API.v&#45;&gt;/Users/wuksh/Monotyper/_INPUT/ProofcaseExport/theories/D001/CIC__RA_Provability/R02__Carryless_Godel_Numbering.v -->
<g id="edge2" class="edge">
<title>/Users/wuksh/Monotyper/_INPUT/ProofcaseExport/theories/D001/D001__API.v&#45;&gt;/Users/wuksh/Monotyper/_INPUT/ProofcaseExport/theories/D001/CIC__RA_Provability/R02__Carryless_Godel_Numbering.v</title>
<path fill="none" stroke="black" d="M212.35,-1080.2C152.97,-1060.93 76,-1022.86 76,-955 76,-955 76,-955 76,-521 76,-459.19 141.02,-421.29 195.59,-400.37"/>
<polygon fill="black" stroke="black" points="196.74,-403.67 204.92,-396.93 194.32,-397.11 196.74,-403.67"/>
</g>
<!-- /Users/wuksh/Monotyper/_INPUT/ProofcaseExport/theories/D001/CIC__RA_Provability/R03__Hilbert_Ackermann_Evaluation.v -->
<g id="node4" class="node">
<title>/Users/wuksh/Monotyper/_INPUT/ProofcaseExport/theories/D001/CIC__RA_Provability/R03__Hilbert_Ackermann_Evaluation.v</title>
<polygon fill="white" stroke="black" points="744,-612 404,-612 404,-576 744,-576 744,-612"/>
<text xml:space="preserve" text-anchor="middle" x="574" y="-590.12" font-family="Times,serif" font-size="10.00">theories/D001/CIC__RA_Provability/R03__Hilbert_Ackermann_Evaluation.v</text>
</g>
<!-- /Users/wuksh/Monotyper/_INPUT/ProofcaseExport/theories/D001/D001__API.v&#45;&gt;/Users/wuksh/Monotyper/_INPUT/ProofcaseExport/theories/D001/CIC__RA_Provability/R03__Hilbert_Ackermann_Evaluation.v -->
<g id="edge3" class="edge">
<title>/Users/wuksh/Monotyper/_INPUT/ProofcaseExport/theories/D001/D001__API.v&#45;&gt;/Users/wuksh/Monotyper/_INPUT/ProofcaseExport/theories/D001/CIC__RA_Provability/R03__Hilbert_Ackermann_Evaluation.v</title>
<path fill="none" stroke="black" d="M347.65,-1091.76C482.95,-1079.42 774,-1042.68 774,-955 774,-955 774,-955 774,-737 774,-674.39 708.03,-636.86 651.87,-616.25"/>
<polygon fill="black" stroke="black" points="653.18,-613 642.58,-612.98 650.85,-619.6 653.18,-613"/>
</g>
<!-- /Users/wuksh/Monotyper/_INPUT/ProofcaseExport/theories/D001/CIC__RA_Provability/R04__Proof_Predicate.v -->
<g id="node5" class="node">
<title>/Users/wuksh/Monotyper/_INPUT/ProofcaseExport/theories/D001/CIC__RA_Provability/R04__Proof_Predicate.v</title>
<polygon fill="white" stroke="black" points="620.25,-828 347.75,-828 347.75,-792 620.25,-792 620.25,-828"/>
<text xml:space="preserve" text-anchor="middle" x="484" y="-806.12" font-family="Times,serif" font-size="10.00">theories/D001/CIC__RA_Provability/R04__Proof_Predicate.v</text>
</g>
<!-- /Users/wuksh/Monotyper/_INPUT/ProofcaseExport/theories/D001/D001__API.v&#45;&gt;/Users/wuksh/Monotyper/_INPUT/ProofcaseExport/theories/D001/CIC__RA_Provability/R04__Proof_Predicate.v -->
<g id="edge4" class="edge">
<title>/Users/wuksh/Monotyper/_INPUT/ProofcaseExport/theories/D001/D001__API.v&#45;&gt;/Users/wuksh/Monotyper/_INPUT/ProofcaseExport/theories/D001/CIC__RA_Provability/R04__Proof_Predicate.v</title>
<path fill="none" stroke="black" d="M347.42,-1082.01C372.81,-1073.9 400.67,-1061.77 422,-1044 483.04,-993.12 487.65,-889.57 485.95,-839.44"/>
<polygon fill="black" stroke="black" points="489.46,-839.53 485.5,-829.71 482.46,-839.86 489.46,-839.53"/>
</g>
<!-- /Users/wuksh/Monotyper/_INPUT/ProofcaseExport/theories/D001/CIC__RA_Provability/R05__Theoremhood.v -->
<g id="node6" class="node">
<title>/Users/wuksh/Monotyper/_INPUT/ProofcaseExport/theories/D001/CIC__RA_Provability/R05__Theoremhood.v</title>
<polygon fill="white" stroke="black" points="412.5,-1044 147.5,-1044 147.5,-1008 412.5,-1008 412.5,-1044"/>
<text xml:space="preserve" text-anchor="middle" x="280" y="-1022.12" font-family="Times,serif" font-size="10.00">theories/D001/CIC__RA_Provability/R05__Theoremhood.v</text>
</g>
<!-- /Users/wuksh/Monotyper/_INPUT/ProofcaseExport/theories/D001/D001__API.v&#45;&gt;/Users/wuksh/Monotyper/_INPUT/ProofcaseExport/theories/D001/CIC__RA_Provability/R05__Theoremhood.v -->
<g id="edge5" class="edge">
<title>/Users/wuksh/Monotyper/_INPUT/ProofcaseExport/theories/D001/D001__API.v&#45;&gt;/Users/wuksh/Monotyper/_INPUT/ProofcaseExport/theories/D001/CIC__RA_Provability/R05__Theoremhood.v</title>
<path fill="none" stroke="black" d="M280,-1079.7C280,-1072.41 280,-1063.73 280,-1055.54"/>
<polygon fill="black" stroke="black" points="283.5,-1055.62 280,-1045.62 276.5,-1055.62 283.5,-1055.62"/>
</g>
<!-- /Users/wuksh/Monotyper/_INPUT/ProofcaseExport/theories/D001/CIC__RA_Provability/CIC__Local_Theory/R01__Proof_Theory_Input.v -->
<g id="node15" class="node">
<title>/Users/wuksh/Monotyper/_INPUT/ProofcaseExport/theories/D001/CIC__RA_Provability/CIC__Local_Theory/R01__Proof_Theory_Input.v</title>
<polygon fill="white" stroke="black" points="545.5,-108 166.5,-108 166.5,-72 545.5,-72 545.5,-108"/>
<text xml:space="preserve" text-anchor="middle" x="356" y="-86.12" font-family="Times,serif" font-size="10.00">theories/D001/CIC__RA_Provability/CIC__Local_Theory/R01__Proof_Theory_Input.v</text>
</g>
<!-- /Users/wuksh/Monotyper/_INPUT/ProofcaseExport/theories/D001/CIC__RA_Provability/R01__Proof_Theory_Input.v&#45;&gt;/Users/wuksh/Monotyper/_INPUT/ProofcaseExport/theories/D001/CIC__RA_Provability/CIC__Local_Theory/R01__Proof_Theory_Input.v -->
<g id="edge20" class="edge">
<title>/Users/wuksh/Monotyper/_INPUT/ProofcaseExport/theories/D001/CIC__RA_Provability/R01__Proof_Theory_Input.v&#45;&gt;/Users/wuksh/Monotyper/_INPUT/ProofcaseExport/theories/D001/CIC__RA_Provability/CIC__Local_Theory/R01__Proof_Theory_Input.v</title>
<path fill="none" stroke="black" d="M356,-143.7C356,-136.41 356,-127.73 356,-119.54"/>
<polygon fill="black" stroke="black" points="359.5,-119.62 356,-109.62 352.5,-119.62 359.5,-119.62"/>
</g>
<!-- /Users/wuksh/Monotyper/_INPUT/ProofcaseExport/theories/D001/CIC__RA_Provability/CIC__Local_Theory/R02__Carryless_Godel_Numbering.v -->
<g id="node16" class="node">
<title>/Users/wuksh/Monotyper/_INPUT/ProofcaseExport/theories/D001/CIC__RA_Provability/CIC__Local_Theory/R02__Carryless_Godel_Numbering.v</title>
<polygon fill="white" stroke="black" points="519.88,-324 104.12,-324 104.12,-288 519.88,-288 519.88,-324"/>
<text xml:space="preserve" text-anchor="middle" x="312" y="-302.12" font-family="Times,serif" font-size="10.00">theories/D001/CIC__RA_Provability/CIC__Local_Theory/R02__Carryless_Godel_Numbering.v</text>
</g>
<!-- /Users/wuksh/Monotyper/_INPUT/ProofcaseExport/theories/D001/CIC__RA_Provability/R02__Carryless_Godel_Numbering.v&#45;&gt;/Users/wuksh/Monotyper/_INPUT/ProofcaseExport/theories/D001/CIC__RA_Provability/CIC__Local_Theory/R02__Carryless_Godel_Numbering.v -->
<g id="edge21" class="edge">
<title>/Users/wuksh/Monotyper/_INPUT/ProofcaseExport/theories/D001/CIC__RA_Provability/R02__Carryless_Godel_Numbering.v&#45;&gt;/Users/wuksh/Monotyper/_INPUT/ProofcaseExport/theories/D001/CIC__RA_Provability/CIC__Local_Theory/R02__Carryless_Godel_Numbering.v</title>
<path fill="none" stroke="black" d="M279.63,-359.7C284.42,-351.9 290.19,-342.51 295.52,-333.83"/>
<polygon fill="black" stroke="black" points="298.45,-335.75 300.7,-325.39 292.48,-332.08 298.45,-335.75"/>
</g>
<!-- /Users/wuksh/Monotyper/_INPUT/ProofcaseExport/theories/D001/CIC__RA_Provability/CIC__Local_Theory/R03__Hilbert_Ackermann_Evaluation.v -->
<g id="node18" class="node">
<title>/Users/wuksh/Monotyper/_INPUT/ProofcaseExport/theories/D001/CIC__RA_Provability/CIC__Local_Theory/R03__Hilbert_Ackermann_Evaluation.v</title>
<polygon fill="white" stroke="black" points="776.88,-540 349.12,-540 349.12,-504 776.88,-504 776.88,-540"/>
<text xml:space="preserve" text-anchor="middle" x="563" y="-518.12" font-family="Times,serif" font-size="10.00">theories/D001/CIC__RA_Provability/CIC__Local_Theory/R03__Hilbert_Ackermann_Evaluation.v</text>
</g>
<!-- /Users/wuksh/Monotyper/_INPUT/ProofcaseExport/theories/D001/CIC__RA_Provability/R03__Hilbert_Ackermann_Evaluation.v&#45;&gt;/Users/wuksh/Monotyper/_INPUT/ProofcaseExport/theories/D001/CIC__RA_Provability/CIC__Local_Theory/R03__Hilbert_Ackermann_Evaluation.v -->
<g id="edge26" class="edge">
<title>/Users/wuksh/Monotyper/_INPUT/ProofcaseExport/theories/D001/CIC__RA_Provability/R03__Hilbert_Ackermann_Evaluation.v&#45;&gt;/Users/wuksh/Monotyper/_INPUT/ProofcaseExport/theories/D001/CIC__RA_Provability/CIC__Local_Theory/R03__Hilbert_Ackermann_Evaluation.v</title>
<path fill="none" stroke="black" d="M571.28,-575.7C570.12,-568.32 568.74,-559.52 567.44,-551.25"/>
<polygon fill="black" stroke="black" points="570.93,-550.93 565.92,-541.6 564.02,-552.02 570.93,-550.93"/>
</g>
<!-- /Users/wuksh/Monotyper/_INPUT/ProofcaseExport/theories/D001/CIC__RA_Provability/CIC__Local_Theory/R04__Proof_Predicate.v -->
<g id="node21" class="node">
<title>/Users/wuksh/Monotyper/_INPUT/ProofcaseExport/theories/D001/CIC__RA_Provability/CIC__Local_Theory/R04__Proof_Predicate.v</title>
<polygon fill="white" stroke="black" points="708.12,-756 347.88,-756 347.88,-720 708.12,-720 708.12,-756"/>
<text xml:space="preserve" text-anchor="middle" x="528" y="-734.12" font-family="Times,serif" font-size="10.00">theories/D001/CIC__RA_Provability/CIC__Local_Theory/R04__Proof_Predicate.v</text>
</g>
<!-- /Users/wuksh/Monotyper/_INPUT/ProofcaseExport/theories/D001/CIC__RA_Provability/R04__Proof_Predicate.v&#45;&gt;/Users/wuksh/Monotyper/_INPUT/ProofcaseExport/theories/D001/CIC__RA_Provability/CIC__Local_Theory/R04__Proof_Predicate.v -->
<g id="edge28" class="edge">
<title>/Users/wuksh/Monotyper/_INPUT/ProofcaseExport/theories/D001/CIC__RA_Provability/R04__Proof_Predicate.v&#45;&gt;/Users/wuksh/Monotyper/_INPUT/ProofcaseExport/theories/D001/CIC__RA_Provability/CIC__Local_Theory/R04__Proof_Predicate.v</title>
<path fill="none" stroke="black" d="M494.88,-791.7C499.78,-783.9 505.68,-774.51 511.14,-765.83"/>
<polygon fill="black" stroke="black" points="514.08,-767.71 516.44,-757.39 508.16,-763.99 514.08,-767.71"/>
</g>
<!-- /Users/wuksh/Monotyper/_INPUT/ProofcaseExport/theories/D001/CIC__RA_Provability/CIC__Local_Theory/R05__Theoremhood.v -->
<g id="node23" class="node">
<title>/Users/wuksh/Monotyper/_INPUT/ProofcaseExport/theories/D001/CIC__RA_Provability/CIC__Local_Theory/R05__Theoremhood.v</title>
<polygon fill="white" stroke="black" points="456.38,-972 103.62,-972 103.62,-936 456.38,-936 456.38,-972"/>
<text xml:space="preserve" text-anchor="middle" x="280" y="-950.12" font-family="Times,serif" font-size="10.00">theories/D001/CIC__RA_Provability/CIC__Local_Theory/R05__Theoremhood.v</text>
</g>
<!-- /Users/wuksh/Monotyper/_INPUT/ProofcaseExport/theories/D001/CIC__RA_Provability/R05__Theoremhood.v&#45;&gt;/Users/wuksh/Monotyper/_INPUT/ProofcaseExport/theories/D001/CIC__RA_Provability/CIC__Local_Theory/R05__Theoremhood.v -->
<g id="edge31" class="edge">
<title>/Users/wuksh/Monotyper/_INPUT/ProofcaseExport/theories/D001/CIC__RA_Provability/R05__Theoremhood.v&#45;&gt;/Users/wuksh/Monotyper/_INPUT/ProofcaseExport/theories/D001/CIC__RA_Provability/CIC__Local_Theory/R05__Theoremhood.v</title>
<path fill="none" stroke="black" d="M280,-1007.7C280,-1000.41 280,-991.73 280,-983.54"/>
<polygon fill="black" stroke="black" points="283.5,-983.62 280,-973.62 276.5,-983.62 283.5,-983.62"/>
</g>
<!-- /Users/wuksh/Monotyper/_INPUT/ProofcaseExport/theories/D001/CIC__Register_Arithmetic/R01__Carryless_Pairing.v -->
<g id="node7" class="node">
<title>/Users/wuksh/Monotyper/_INPUT/ProofcaseExport/theories/D001/CIC__Register_Arithmetic/R01__Carryless_Pairing.v</title>
<polygon fill="white" stroke="black" points="1140,-756 842,-756 842,-720 1140,-720 1140,-756"/>
<text xml:space="preserve" text-anchor="middle" x="991" y="-734.12" font-family="Times,serif" font-size="10.00">theories/D001/CIC__Register_Arithmetic/R01__Carryless_Pairing.v</text>
</g>
<!-- /Users/wuksh/Monotyper/_INPUT/ProofcaseExport/theories/D001/CIC__Register_Arithmetic/R02__Base_Fibonacci.v -->
<g id="node8" class="node">
<title>/Users/wuksh/Monotyper/_INPUT/ProofcaseExport/theories/D001/CIC__Register_Arithmetic/R02__Base_Fibonacci.v</title>
<polygon fill="white" stroke="black" points="1136.62,-828 845.38,-828 845.38,-792 1136.62,-792 1136.62,-828"/>
<text xml:space="preserve" text-anchor="middle" x="991" y="-806.12" font-family="Times,serif" font-size="10.00">theories/D001/CIC__Register_Arithmetic/R02__Base_Fibonacci.v</text>
</g>
<!-- /Users/wuksh/Monotyper/_INPUT/ProofcaseExport/theories/D001/CIC__Register_Arithmetic/R02__Base_Fibonacci.v&#45;&gt;/Users/wuksh/Monotyper/_INPUT/ProofcaseExport/theories/D001/CIC__Register_Arithmetic/R01__Carryless_Pairing.v -->
<g id="edge6" class="edge">
<title>/Users/wuksh/Monotyper/_INPUT/ProofcaseExport/theories/D001/CIC__Register_Arithmetic/R02__Base_Fibonacci.v&#45;&gt;/Users/wuksh/Monotyper/_INPUT/ProofcaseExport/theories/D001/CIC__Register_Arithmetic/R01__Carryless_Pairing.v</title>
<path fill="none" stroke="black" d="M991,-791.7C991,-784.41 991,-775.73 991,-767.54"/>
<polygon fill="black" stroke="black" points="994.5,-767.62 991,-757.62 987.5,-767.62 994.5,-767.62"/>
</g>
<!-- /Users/wuksh/Monotyper/_INPUT/ProofcaseExport/theories/D001/CIC__Register_Arithmetic/R03__RA.v -->
<g id="node9" class="node">
<title>/Users/wuksh/Monotyper/_INPUT/ProofcaseExport/theories/D001/CIC__Register_Arithmetic/R03__RA.v</title>
<polygon fill="white" stroke="black" points="1288.12,-900 1047.88,-900 1047.88,-864 1288.12,-864 1288.12,-900"/>
<text xml:space="preserve" text-anchor="middle" x="1168" y="-878.12" font-family="Times,serif" font-size="10.00">theories/D001/CIC__Register_Arithmetic/R03__RA.v</text>
</g>
<!-- /Users/wuksh/Monotyper/_INPUT/ProofcaseExport/theories/D001/CIC__Register_Arithmetic/R03__RA.v&#45;&gt;/Users/wuksh/Monotyper/_INPUT/ProofcaseExport/theories/D001/CIC__Register_Arithmetic/R01__Carryless_Pairing.v -->
<g id="edge7" class="edge">
<title>/Users/wuksh/Monotyper/_INPUT/ProofcaseExport/theories/D001/CIC__Register_Arithmetic/R03__RA.v&#45;&gt;/Users/wuksh/Monotyper/_INPUT/ProofcaseExport/theories/D001/CIC__Register_Arithmetic/R01__Carryless_Pairing.v</title>
<path fill="none" stroke="black" d="M1168.39,-863.67C1167.9,-843.88 1164.07,-811.71 1146,-792 1133.39,-778.24 1117.06,-768.05 1099.75,-760.51"/>
<polygon fill="black" stroke="black" points="1101.45,-757.42 1090.86,-756.93 1098.83,-763.92 1101.45,-757.42"/>
</g>
<!-- /Users/wuksh/Monotyper/_INPUT/ProofcaseExport/theories/D001/CIC__Register_Arithmetic/R03__RA.v&#45;&gt;/Users/wuksh/Monotyper/_INPUT/ProofcaseExport/theories/D001/CIC__Register_Arithmetic/R02__Base_Fibonacci.v -->
<g id="edge8" class="edge">
<title>/Users/wuksh/Monotyper/_INPUT/ProofcaseExport/theories/D001/CIC__Register_Arithmetic/R03__RA.v&#45;&gt;/Users/wuksh/Monotyper/_INPUT/ProofcaseExport/theories/D001/CIC__Register_Arithmetic/R02__Base_Fibonacci.v</title>
<path fill="none" stroke="black" d="M1123.79,-863.52C1100.05,-854.13 1070.58,-842.47 1045.43,-832.53"/>
<polygon fill="black" stroke="black" points="1046.94,-829.36 1036.36,-828.94 1044.37,-835.87 1046.94,-829.36"/>
</g>
<!-- /Users/wuksh/Monotyper/_INPUT/ProofcaseExport/theories/D001/CIC__Register_Arithmetic/R04__Mapping.v -->
<g id="node10" class="node">
<title>/Users/wuksh/Monotyper/_INPUT/ProofcaseExport/theories/D001/CIC__Register_Arithmetic/R04__Mapping.v</title>
<polygon fill="white" stroke="black" points="1141.75,-972 878.25,-972 878.25,-936 1141.75,-936 1141.75,-972"/>
<text xml:space="preserve" text-anchor="middle" x="1010" y="-950.12" font-family="Times,serif" font-size="10.00">theories/D001/CIC__Register_Arithmetic/R04__Mapping.v</text>
</g>
<!-- /Users/wuksh/Monotyper/_INPUT/ProofcaseExport/theories/D001/CIC__Register_Arithmetic/R04__Mapping.v&#45;&gt;/Users/wuksh/Monotyper/_INPUT/ProofcaseExport/theories/D001/CIC__Register_Arithmetic/R03__RA.v -->
<g id="edge9" class="edge">
<title>/Users/wuksh/Monotyper/_INPUT/ProofcaseExport/theories/D001/CIC__Register_Arithmetic/R04__Mapping.v&#45;&gt;/Users/wuksh/Monotyper/_INPUT/ProofcaseExport/theories/D001/CIC__Register_Arithmetic/R03__RA.v</title>
<path fill="none" stroke="black" d="M1049.46,-935.52C1070.37,-926.25 1096.26,-914.78 1118.51,-904.93"/>
<polygon fill="black" stroke="black" points="1119.66,-908.25 1127.38,-900.99 1116.82,-901.85 1119.66,-908.25"/>
</g>
<!-- /Users/wuksh/Monotyper/_INPUT/ProofcaseExport/theories/D001/CIC__Register_Arithmetic/R05__Classes.v -->
<g id="node11" class="node">
<title>/Users/wuksh/Monotyper/_INPUT/ProofcaseExport/theories/D001/CIC__Register_Arithmetic/R05__Classes.v</title>
<polygon fill="white" stroke="black" points="1492,-972 1236,-972 1236,-936 1492,-936 1492,-972"/>
<text xml:space="preserve" text-anchor="middle" x="1364" y="-950.12" font-family="Times,serif" font-size="10.00">theories/D001/CIC__Register_Arithmetic/R05__Classes.v</text>
</g>
<!-- /Users/wuksh/Monotyper/_INPUT/ProofcaseExport/theories/D001/CIC__Register_Arithmetic/R05__Classes.v&#45;&gt;/Users/wuksh/Monotyper/_INPUT/ProofcaseExport/theories/D001/CIC__Register_Arithmetic/R03__RA.v -->
<g id="edge10" class="edge">
<title>/Users/wuksh/Monotyper/_INPUT/ProofcaseExport/theories/D001/CIC__Register_Arithmetic/R05__Classes.v&#45;&gt;/Users/wuksh/Monotyper/_INPUT/ProofcaseExport/theories/D001/CIC__Register_Arithmetic/R03__RA.v</title>
<path fill="none" stroke="black" d="M1315.05,-935.52C1288.4,-926 1255.24,-914.16 1227.16,-904.13"/>
<polygon fill="black" stroke="black" points="1228.69,-900.96 1218.09,-900.89 1226.33,-907.55 1228.69,-900.96"/>
</g>
<!-- /Users/wuksh/Monotyper/_INPUT/ProofcaseExport/theories/D001/CIC__Register_Arithmetic/R06__Schemas.v -->
<g id="node12" class="node">
<title>/Users/wuksh/Monotyper/_INPUT/ProofcaseExport/theories/D001/CIC__Register_Arithmetic/R06__Schemas.v</title>
<polygon fill="white" stroke="black" points="1459.62,-1044 1198.38,-1044 1198.38,-1008 1459.62,-1008 1459.62,-1044"/>
<text xml:space="preserve" text-anchor="middle" x="1329" y="-1022.12" font-family="Times,serif" font-size="10.00">theories/D001/CIC__Register_Arithmetic/R06__Schemas.v</text>
</g>
<!-- /Users/wuksh/Monotyper/_INPUT/ProofcaseExport/theories/D001/CIC__Register_Arithmetic/R06__Schemas.v&#45;&gt;/Users/wuksh/Monotyper/_INPUT/ProofcaseExport/theories/D001/CIC__Register_Arithmetic/R03__RA.v -->
<g id="edge11" class="edge">
<title>/Users/wuksh/Monotyper/_INPUT/ProofcaseExport/theories/D001/CIC__Register_Arithmetic/R06__Schemas.v&#45;&gt;/Users/wuksh/Monotyper/_INPUT/ProofcaseExport/theories/D001/CIC__Register_Arithmetic/R03__RA.v</title>
<path fill="none" stroke="black" d="M1283.75,-1007.51C1264.84,-998.74 1243.47,-986.81 1227,-972 1207.66,-954.62 1191.81,-929.57 1181.42,-910.47"/>
<polygon fill="black" stroke="black" points="1184.53,-908.86 1176.79,-901.63 1178.33,-912.11 1184.53,-908.86"/>
</g>
<!-- /Users/wuksh/Monotyper/_INPUT/ProofcaseExport/theories/D001/CIC__Register_Arithmetic/R06__Schemas.v&#45;&gt;/Users/wuksh/Monotyper/_INPUT/ProofcaseExport/theories/D001/CIC__Register_Arithmetic/R05__Classes.v -->
<g id="edge12" class="edge">
<title>/Users/wuksh/Monotyper/_INPUT/ProofcaseExport/theories/D001/CIC__Register_Arithmetic/R06__Schemas.v&#45;&gt;/Users/wuksh/Monotyper/_INPUT/ProofcaseExport/theories/D001/CIC__Register_Arithmetic/R05__Classes.v</title>
<path fill="none" stroke="black" d="M1337.65,-1007.7C1341.47,-1000.07 1346.04,-990.92 1350.3,-982.4"/>
<polygon fill="black" stroke="black" points="1353.43,-983.97 1354.77,-973.46 1347.17,-980.84 1353.43,-983.97"/>
</g>
<!-- /Users/wuksh/Monotyper/_INPUT/ProofcaseExport/theories/D001/CIC__Register_Arithmetic/R07__RA_Theory.v -->
<g id="node13" class="node">
<title>/Users/wuksh/Monotyper/_INPUT/ProofcaseExport/theories/D001/CIC__Register_Arithmetic/R07__RA_Theory.v</title>
<polygon fill="white" stroke="black" points="1147,-1116 873,-1116 873,-1080 1147,-1080 1147,-1116"/>
<text xml:space="preserve" text-anchor="middle" x="1010" y="-1094.12" font-family="Times,serif" font-size="10.00">theories/D001/CIC__Register_Arithmetic/R07__RA_Theory.v</text>
</g>
<!-- /Users/wuksh/Monotyper/_INPUT/ProofcaseExport/theories/D001/CIC__Register_Arithmetic/R07__RA_Theory.v&#45;&gt;/Users/wuksh/Monotyper/_INPUT/ProofcaseExport/theories/D001/CIC__Register_Arithmetic/R01__Carryless_Pairing.v -->
<g id="edge13" class="edge">
<title>/Users/wuksh/Monotyper/_INPUT/ProofcaseExport/theories/D001/CIC__Register_Arithmetic/R07__RA_Theory.v&#45;&gt;/Users/wuksh/Monotyper/_INPUT/ProofcaseExport/theories/D001/CIC__Register_Arithmetic/R01__Carryless_Pairing.v</title>
<path fill="none" stroke="black" d="M944.07,-1079.51C886.47,-1059.77 812,-1021.41 812,-955 812,-955 812,-955 812,-881 812,-840.03 808,-821.91 836,-792 848.83,-778.29 865.36,-768.12 882.82,-760.59"/>
<polygon fill="black" stroke="black" points="883.8,-763.97 891.78,-757.01 881.2,-757.47 883.8,-763.97"/>
</g>
<!-- /Users/wuksh/Monotyper/_INPUT/ProofcaseExport/theories/D001/CIC__Register_Arithmetic/R07__RA_Theory.v&#45;&gt;/Users/wuksh/Monotyper/_INPUT/ProofcaseExport/theories/D001/CIC__Register_Arithmetic/R02__Base_Fibonacci.v -->
<g id="edge14" class="edge">
<title>/Users/wuksh/Monotyper/_INPUT/ProofcaseExport/theories/D001/CIC__Register_Arithmetic/R07__RA_Theory.v&#45;&gt;/Users/wuksh/Monotyper/_INPUT/ProofcaseExport/theories/D001/CIC__Register_Arithmetic/R02__Base_Fibonacci.v</title>
<path fill="none" stroke="black" d="M977.61,-1079.51C943.32,-1058.92 891.14,-1021.23 869,-972 844.4,-917.32 907.06,-863.87 951.41,-834.4"/>
<polygon fill="black" stroke="black" points="953.07,-837.49 959.56,-829.13 949.27,-831.62 953.07,-837.49"/>
</g>
<!-- /Users/wuksh/Monotyper/_INPUT/ProofcaseExport/theories/D001/CIC__Register_Arithmetic/R07__RA_Theory.v&#45;&gt;/Users/wuksh/Monotyper/_INPUT/ProofcaseExport/theories/D001/CIC__Register_Arithmetic/R03__RA.v -->
<g id="edge15" class="edge">
<title>/Users/wuksh/Monotyper/_INPUT/ProofcaseExport/theories/D001/CIC__Register_Arithmetic/R07__RA_Theory.v&#45;&gt;/Users/wuksh/Monotyper/_INPUT/ProofcaseExport/theories/D001/CIC__Register_Arithmetic/R03__RA.v</title>
<path fill="none" stroke="black" d="M1039.19,-1079.59C1071.91,-1058.45 1123.91,-1019.63 1151,-972 1161.48,-953.58 1165.63,-929.9 1167.22,-911.6"/>
<polygon fill="black" stroke="black" points="1170.71,-911.9 1167.85,-901.7 1163.72,-911.46 1170.71,-911.9"/>
</g>
<!-- /Users/wuksh/Monotyper/_INPUT/ProofcaseExport/theories/D001/CIC__Register_Arithmetic/R07__RA_Theory.v&#45;&gt;/Users/wuksh/Monotyper/_INPUT/ProofcaseExport/theories/D001/CIC__Register_Arithmetic/R06__Schemas.v -->
<g id="edge16" class="edge">
<title>/Users/wuksh/Monotyper/_INPUT/ProofcaseExport/theories/D001/CIC__Register_Arithmetic/R07__RA_Theory.v&#45;&gt;/Users/wuksh/Monotyper/_INPUT/ProofcaseExport/theories/D001/CIC__Register_Arithmetic/R06__Schemas.v</title>
<path fill="none" stroke="black" d="M1089.67,-1079.52C1134.86,-1069.6 1191.57,-1057.16 1238.44,-1046.87"/>
<polygon fill="black" stroke="black" points="1239.02,-1050.33 1248.03,-1044.77 1237.52,-1043.49 1239.02,-1050.33"/>
</g>
<!-- /Users/wuksh/Monotyper/_INPUT/ProofcaseExport/theories/D001/CIC__RA_Provability/R01__Proof_Predicate.v -->
<g id="node14" class="node">
<title>/Users/wuksh/Monotyper/_INPUT/ProofcaseExport/theories/D001/CIC__RA_Provability/R01__Proof_Predicate.v</title>
<polygon fill="white" stroke="black" points="532.25,-684 259.75,-684 259.75,-648 532.25,-648 532.25,-684"/>
<text xml:space="preserve" text-anchor="middle" x="396" y="-662.12" font-family="Times,serif" font-size="10.00">theories/D001/CIC__RA_Provability/R01__Proof_Predicate.v</text>
</g>
<!-- /Users/wuksh/Monotyper/_INPUT/ProofcaseExport/theories/D001/CIC__RA_Provability/R01__Proof_Predicate.v&#45;&gt;/Users/wuksh/Monotyper/_INPUT/ProofcaseExport/theories/D001/CIC__RA_Provability/R01__Proof_Theory_Input.v -->
<g id="edge17" class="edge">
<title>/Users/wuksh/Monotyper/_INPUT/ProofcaseExport/theories/D001/CIC__RA_Provability/R01__Proof_Predicate.v&#45;&gt;/Users/wuksh/Monotyper/_INPUT/ProofcaseExport/theories/D001/CIC__RA_Provability/R01__Proof_Theory_Input.v</title>
<path fill="none" stroke="black" d="M383.68,-647.64C364.56,-618.67 330.84,-558.28 340,-504 345.63,-470.6 342.31,-457.16 365,-432 390.3,-403.95 410.08,-416.21 442,-396 484.41,-369.16 507.63,-369.42 529,-324 549.43,-280.57 557.54,-254.59 529,-216 519.29,-202.87 506.38,-192.88 491.98,-185.31"/>
<polygon fill="black" stroke="black" points="493.69,-182.25 483.16,-181.09 490.68,-188.56 493.69,-182.25"/>
</g>
<!-- /Users/wuksh/Monotyper/_INPUT/ProofcaseExport/theories/D001/CIC__RA_Provability/R01__Proof_Predicate.v&#45;&gt;/Users/wuksh/Monotyper/_INPUT/ProofcaseExport/theories/D001/CIC__RA_Provability/R02__Carryless_Godel_Numbering.v -->
<g id="edge18" class="edge">
<title>/Users/wuksh/Monotyper/_INPUT/ProofcaseExport/theories/D001/CIC__RA_Provability/R01__Proof_Predicate.v&#45;&gt;/Users/wuksh/Monotyper/_INPUT/ProofcaseExport/theories/D001/CIC__RA_Provability/R02__Carryless_Godel_Numbering.v</title>
<path fill="none" stroke="black" d="M350.73,-647.73C334.51,-639.33 317.63,-627.61 307,-612 264.13,-549.02 263.48,-454.65 266.34,-407.68"/>
<polygon fill="black" stroke="black" points="269.83,-408.02 267.06,-397.8 262.85,-407.52 269.83,-408.02"/>
</g>
<!-- /Users/wuksh/Monotyper/_INPUT/ProofcaseExport/theories/D001/CIC__RA_Provability/R01__Proof_Predicate.v&#45;&gt;/Users/wuksh/Monotyper/_INPUT/ProofcaseExport/theories/D001/CIC__RA_Provability/R03__Hilbert_Ackermann_Evaluation.v -->
<g id="edge19" class="edge">
<title>/Users/wuksh/Monotyper/_INPUT/ProofcaseExport/theories/D001/CIC__RA_Provability/R01__Proof_Predicate.v&#45;&gt;/Users/wuksh/Monotyper/_INPUT/ProofcaseExport/theories/D001/CIC__RA_Provability/R03__Hilbert_Ackermann_Evaluation.v</title>
<path fill="none" stroke="black" d="M440.46,-647.52C464.33,-638.13 493.97,-626.47 519.26,-616.53"/>
<polygon fill="black" stroke="black" points="520.37,-619.85 528.39,-612.94 517.81,-613.34 520.37,-619.85"/>
</g>
<!-- /Users/wuksh/Monotyper/_INPUT/ProofcaseExport/theories/D001/CIC__RA_Provability/R03__Proof_Theory_Input.v -->
<g id="node19" class="node">
<title>/Users/wuksh/Monotyper/_INPUT/ProofcaseExport/theories/D001/CIC__RA_Provability/R03__Proof_Theory_Input.v</title>
<polygon fill="white" stroke="black" points="501.62,-36 210.38,-36 210.38,0 501.62,0 501.62,-36"/>
<text xml:space="preserve" text-anchor="middle" x="356" y="-14.12" font-family="Times,serif" font-size="10.00">theories/D001/CIC__RA_Provability/R03__Proof_Theory_Input.v</text>
</g>
<!-- /Users/wuksh/Monotyper/_INPUT/ProofcaseExport/theories/D001/CIC__RA_Provability/CIC__Local_Theory/R01__Proof_Theory_Input.v&#45;&gt;/Users/wuksh/Monotyper/_INPUT/ProofcaseExport/theories/D001/CIC__RA_Provability/R03__Proof_Theory_Input.v -->
<g id="edge32" class="edge">
<title>/Users/wuksh/Monotyper/_INPUT/ProofcaseExport/theories/D001/CIC__RA_Provability/CIC__Local_Theory/R01__Proof_Theory_Input.v&#45;&gt;/Users/wuksh/Monotyper/_INPUT/ProofcaseExport/theories/D001/CIC__RA_Provability/R03__Proof_Theory_Input.v</title>
<path fill="none" stroke="black" d="M356,-71.7C356,-64.41 356,-55.73 356,-47.54"/>
<polygon fill="black" stroke="black" points="359.5,-47.62 356,-37.62 352.5,-47.62 359.5,-47.62"/>
</g>
<!-- /Users/wuksh/Monotyper/_INPUT/ProofcaseExport/theories/D001/CIC__RA_Provability/CIC__Local_Theory/R02__Carryless_Godel_Numbering.v&#45;&gt;/Users/wuksh/Monotyper/_INPUT/ProofcaseExport/theories/D001/CIC__RA_Provability/R01__Proof_Theory_Input.v -->
<g id="edge33" class="edge">
<title>/Users/wuksh/Monotyper/_INPUT/ProofcaseExport/theories/D001/CIC__RA_Provability/CIC__Local_Theory/R02__Carryless_Godel_Numbering.v&#45;&gt;/Users/wuksh/Monotyper/_INPUT/ProofcaseExport/theories/D001/CIC__RA_Provability/R01__Proof_Theory_Input.v</title>
<path fill="none" stroke="black" d="M229.21,-287.54C211.05,-279.72 193.99,-268.39 183,-252 174.09,-238.71 173.49,-228.86 183,-216 192.71,-202.87 205.62,-192.88 220.02,-185.31"/>
<polygon fill="black" stroke="black" points="221.32,-188.56 228.84,-181.09 218.31,-182.25 221.32,-188.56"/>
</g>
<!-- /Users/wuksh/Monotyper/_INPUT/ProofcaseExport/theories/D001/CIC__RA_Provability/R04__Carryless_Godel_Numbering.v -->
<g id="node20" class="node">
<title>/Users/wuksh/Monotyper/_INPUT/ProofcaseExport/theories/D001/CIC__RA_Provability/R04__Carryless_Godel_Numbering.v</title>
<polygon fill="white" stroke="black" points="520,-252 192,-252 192,-216 520,-216 520,-252"/>
<text xml:space="preserve" text-anchor="middle" x="356" y="-230.12" font-family="Times,serif" font-size="10.00">theories/D001/CIC__RA_Provability/R04__Carryless_Godel_Numbering.v</text>
</g>
<!-- /Users/wuksh/Monotyper/_INPUT/ProofcaseExport/theories/D001/CIC__RA_Provability/CIC__Local_Theory/R02__Carryless_Godel_Numbering.v&#45;&gt;/Users/wuksh/Monotyper/_INPUT/ProofcaseExport/theories/D001/CIC__RA_Provability/R04__Carryless_Godel_Numbering.v -->
<g id="edge34" class="edge">
<title>/Users/wuksh/Monotyper/_INPUT/ProofcaseExport/theories/D001/CIC__RA_Provability/CIC__Local_Theory/R02__Carryless_Godel_Numbering.v&#45;&gt;/Users/wuksh/Monotyper/_INPUT/ProofcaseExport/theories/D001/CIC__RA_Provability/R04__Carryless_Godel_Numbering.v</title>
<path fill="none" stroke="black" d="M322.88,-287.7C327.78,-279.9 333.68,-270.51 339.14,-261.83"/>
<polygon fill="black" stroke="black" points="342.08,-263.71 344.44,-253.39 336.16,-259.99 342.08,-263.71"/>
</g>
<!-- /Users/wuksh/Monotyper/_INPUT/ProofcaseExport/theories/D001/CIC__RA_Provability/R02__Theoremhood.v -->
<g id="node17" class="node">
<title>/Users/wuksh/Monotyper/_INPUT/ProofcaseExport/theories/D001/CIC__RA_Provability/R02__Theoremhood.v</title>
<polygon fill="white" stroke="black" points="412.5,-900 147.5,-900 147.5,-864 412.5,-864 412.5,-900"/>
<text xml:space="preserve" text-anchor="middle" x="280" y="-878.12" font-family="Times,serif" font-size="10.00">theories/D001/CIC__RA_Provability/R02__Theoremhood.v</text>
</g>
<!-- /Users/wuksh/Monotyper/_INPUT/ProofcaseExport/theories/D001/CIC__RA_Provability/R02__Theoremhood.v&#45;&gt;/Users/wuksh/Monotyper/_INPUT/ProofcaseExport/theories/D001/CIC__RA_Provability/R01__Proof_Theory_Input.v -->
<g id="edge22" class="edge">
<title>/Users/wuksh/Monotyper/_INPUT/ProofcaseExport/theories/D001/CIC__RA_Provability/R02__Theoremhood.v&#45;&gt;/Users/wuksh/Monotyper/_INPUT/ProofcaseExport/theories/D001/CIC__RA_Provability/R01__Proof_Theory_Input.v</title>
<path fill="none" stroke="black" d="M249.03,-863.55C212.3,-840.3 156,-795.46 156,-739 156,-739 156,-739 156,-593 156,-454.76 39.96,-414.81 95,-288 119.43,-231.71 179.95,-200.68 236.57,-183.62"/>
<polygon fill="black" stroke="black" points="237.36,-187.04 246,-180.91 235.42,-180.31 237.36,-187.04"/>
</g>
<!-- /Users/wuksh/Monotyper/_INPUT/ProofcaseExport/theories/D001/CIC__RA_Provability/R02__Theoremhood.v&#45;&gt;/Users/wuksh/Monotyper/_INPUT/ProofcaseExport/theories/D001/CIC__RA_Provability/R02__Carryless_Godel_Numbering.v -->
<g id="edge23" class="edge">
<title>/Users/wuksh/Monotyper/_INPUT/ProofcaseExport/theories/D001/CIC__RA_Provability/R02__Theoremhood.v&#45;&gt;/Users/wuksh/Monotyper/_INPUT/ProofcaseExport/theories/D001/CIC__RA_Provability/R02__Carryless_Godel_Numbering.v</title>
<path fill="none" stroke="black" d="M260.91,-863.77C235.58,-838.91 194,-790.3 194,-739 194,-739 194,-739 194,-521 194,-476.36 223.34,-432.01 245.32,-405.05"/>
<polygon fill="black" stroke="black" points="247.98,-407.32 251.75,-397.42 242.63,-402.81 247.98,-407.32"/>
</g>
<!-- /Users/wuksh/Monotyper/_INPUT/ProofcaseExport/theories/D001/CIC__RA_Provability/R02__Theoremhood.v&#45;&gt;/Users/wuksh/Monotyper/_INPUT/ProofcaseExport/theories/D001/CIC__RA_Provability/R03__Hilbert_Ackermann_Evaluation.v -->
<g id="edge24" class="edge">
<title>/Users/wuksh/Monotyper/_INPUT/ProofcaseExport/theories/D001/CIC__RA_Provability/R02__Theoremhood.v&#45;&gt;/Users/wuksh/Monotyper/_INPUT/ProofcaseExport/theories/D001/CIC__RA_Provability/R03__Hilbert_Ackermann_Evaluation.v</title>
<path fill="none" stroke="black" d="M280.94,-863.52C283.74,-830.06 294.87,-757.02 339,-720 408.87,-661.4 471.02,-742.47 541,-684 558.89,-669.05 567.08,-643.45 570.84,-623.54"/>
<polygon fill="black" stroke="black" points="574.27,-624.22 572.37,-613.8 567.36,-623.13 574.27,-624.22"/>
</g>
<!-- /Users/wuksh/Monotyper/_INPUT/ProofcaseExport/theories/D001/CIC__RA_Provability/R02__Theoremhood.v&#45;&gt;/Users/wuksh/Monotyper/_INPUT/ProofcaseExport/theories/D001/CIC__RA_Provability/R04__Proof_Predicate.v -->
<g id="edge25" class="edge">
<title>/Users/wuksh/Monotyper/_INPUT/ProofcaseExport/theories/D001/CIC__RA_Provability/R02__Theoremhood.v&#45;&gt;/Users/wuksh/Monotyper/_INPUT/ProofcaseExport/theories/D001/CIC__RA_Provability/R04__Proof_Predicate.v</title>
<path fill="none" stroke="black" d="M330.95,-863.52C358.8,-853.96 393.5,-842.05 422.81,-832"/>
<polygon fill="black" stroke="black" points="423.59,-835.43 431.91,-828.87 421.32,-828.81 423.59,-835.43"/>
</g>
<!-- /Users/wuksh/Monotyper/_INPUT/ProofcaseExport/theories/D001/CIC__RA_Provability/CIC__Local_Theory/R03__Hilbert_Ackermann_Evaluation.v&#45;&gt;/Users/wuksh/Monotyper/_INPUT/ProofcaseExport/theories/D001/CIC__RA_Provability/R01__Proof_Theory_Input.v -->
<g id="edge35" class="edge">
<title>/Users/wuksh/Monotyper/_INPUT/ProofcaseExport/theories/D001/CIC__RA_Provability/CIC__Local_Theory/R03__Hilbert_Ackermann_Evaluation.v&#45;&gt;/Users/wuksh/Monotyper/_INPUT/ProofcaseExport/theories/D001/CIC__RA_Provability/R01__Proof_Theory_Input.v</title>
<path fill="none" stroke="black" d="M667.47,-503.65C688.29,-495.81 708.26,-484.45 723,-468 749.99,-437.88 742,-419.45 742,-379 742,-379 742,-379 742,-305 742,-246.91 586.07,-205.3 472.43,-182.69"/>
<polygon fill="black" stroke="black" points="473.19,-179.27 462.71,-180.78 471.85,-186.14 473.19,-179.27"/>
</g>
<!-- /Users/wuksh/Monotyper/_INPUT/ProofcaseExport/theories/D001/CIC__RA_Provability/CIC__Local_Theory/R03__Hilbert_Ackermann_Evaluation.v&#45;&gt;/Users/wuksh/Monotyper/_INPUT/ProofcaseExport/theories/D001/CIC__RA_Provability/R02__Carryless_Godel_Numbering.v -->
<g id="edge36" class="edge">
<title>/Users/wuksh/Monotyper/_INPUT/ProofcaseExport/theories/D001/CIC__RA_Provability/CIC__Local_Theory/R03__Hilbert_Ackermann_Evaluation.v&#45;&gt;/Users/wuksh/Monotyper/_INPUT/ProofcaseExport/theories/D001/CIC__RA_Provability/R02__Carryless_Godel_Numbering.v</title>
<path fill="none" stroke="black" d="M460.41,-503.55C428.57,-495.55 394.2,-484.13 365,-468 335.84,-451.9 308.61,-425.06 290.65,-405.06"/>
<polygon fill="black" stroke="black" points="293.3,-402.77 284.07,-397.56 288.03,-407.38 293.3,-402.77"/>
</g>
<!-- /Users/wuksh/Monotyper/_INPUT/ProofcaseExport/theories/D001/CIC__RA_Provability/R05__Hilbert_Ackermann_Evaluation.v -->
<g id="node22" class="node">
<title>/Users/wuksh/Monotyper/_INPUT/ProofcaseExport/theories/D001/CIC__RA_Provability/R05__Hilbert_Ackermann_Evaluation.v</title>
<polygon fill="white" stroke="black" points="714,-468 374,-468 374,-432 714,-432 714,-468"/>
<text xml:space="preserve" text-anchor="middle" x="544" y="-446.12" font-family="Times,serif" font-size="10.00">theories/D001/CIC__RA_Provability/R05__Hilbert_Ackermann_Evaluation.v</text>
</g>
<!-- /Users/wuksh/Monotyper/_INPUT/ProofcaseExport/theories/D001/CIC__RA_Provability/CIC__Local_Theory/R03__Hilbert_Ackermann_Evaluation.v&#45;&gt;/Users/wuksh/Monotyper/_INPUT/ProofcaseExport/theories/D001/CIC__RA_Provability/R05__Hilbert_Ackermann_Evaluation.v -->
<g id="edge37" class="edge">
<title>/Users/wuksh/Monotyper/_INPUT/ProofcaseExport/theories/D001/CIC__RA_Provability/CIC__Local_Theory/R03__Hilbert_Ackermann_Evaluation.v&#45;&gt;/Users/wuksh/Monotyper/_INPUT/ProofcaseExport/theories/D001/CIC__RA_Provability/R05__Hilbert_Ackermann_Evaluation.v</title>
<path fill="none" stroke="black" d="M558.3,-503.7C556.28,-496.24 553.86,-487.32 551.59,-478.97"/>
<polygon fill="black" stroke="black" points="555.04,-478.3 549.04,-469.57 548.28,-480.13 555.04,-478.3"/>
</g>
<!-- /Users/wuksh/Monotyper/_INPUT/ProofcaseExport/theories/D001/CIC__RA_Provability/R04__Carryless_Godel_Numbering.v&#45;&gt;/Users/wuksh/Monotyper/_INPUT/ProofcaseExport/theories/D001/CIC__RA_Provability/R01__Proof_Theory_Input.v -->
<g id="edge27" class="edge">
<title>/Users/wuksh/Monotyper/_INPUT/ProofcaseExport/theories/D001/CIC__RA_Provability/R04__Carryless_Godel_Numbering.v&#45;&gt;/Users/wuksh/Monotyper/_INPUT/ProofcaseExport/theories/D001/CIC__RA_Provability/R01__Proof_Theory_Input.v</title>
<path fill="none" stroke="black" d="M356,-215.7C356,-208.41 356,-199.73 356,-191.54"/>
<polygon fill="black" stroke="black" points="359.5,-191.62 356,-181.62 352.5,-191.62 359.5,-191.62"/>
</g>
<!-- /Users/wuksh/Monotyper/_INPUT/ProofcaseExport/theories/D001/CIC__RA_Provability/CIC__Local_Theory/R04__Proof_Predicate.v&#45;&gt;/Users/wuksh/Monotyper/_INPUT/ProofcaseExport/theories/D001/CIC__RA_Provability/R01__Proof_Theory_Input.v -->
<g id="edge39" class="edge">
<title>/Users/wuksh/Monotyper/_INPUT/ProofcaseExport/theories/D001/CIC__RA_Provability/CIC__Local_Theory/R04__Proof_Predicate.v&#45;&gt;/Users/wuksh/Monotyper/_INPUT/ProofcaseExport/theories/D001/CIC__RA_Provability/R01__Proof_Theory_Input.v</title>
<path fill="none" stroke="black" d="M578.7,-719.59C628.69,-700.18 704.44,-664.47 753,-612 804.08,-556.81 805,-526.2 805,-451 805,-451 805,-451 805,-305 805,-233.13 736.87,-242.32 670,-216 620.76,-196.61 564.44,-184.32 513.22,-176.51"/>
<polygon fill="black" stroke="black" points="513.93,-173.08 503.53,-175.09 512.91,-180.01 513.93,-173.08"/>
</g>
<!-- /Users/wuksh/Monotyper/_INPUT/ProofcaseExport/theories/D001/CIC__RA_Provability/CIC__Local_Theory/R04__Proof_Predicate.v&#45;&gt;/Users/wuksh/Monotyper/_INPUT/ProofcaseExport/theories/D001/CIC__RA_Provability/R02__Carryless_Godel_Numbering.v -->
<g id="edge40" class="edge">
<title>/Users/wuksh/Monotyper/_INPUT/ProofcaseExport/theories/D001/CIC__RA_Provability/CIC__Local_Theory/R04__Proof_Predicate.v&#45;&gt;/Users/wuksh/Monotyper/_INPUT/ProofcaseExport/theories/D001/CIC__RA_Provability/R02__Carryless_Godel_Numbering.v</title>
<path fill="none" stroke="black" d="M355.37,-719.53C309.16,-711.52 267.44,-700.1 251,-684 222.1,-655.71 232,-635.45 232,-595 232,-595 232,-595 232,-521 232,-480.25 246.45,-434.98 257.29,-406.75"/>
<polygon fill="black" stroke="black" points="260.51,-408.11 260.95,-397.52 254.01,-405.52 260.51,-408.11"/>
</g>
<!-- /Users/wuksh/Monotyper/_INPUT/ProofcaseExport/theories/D001/CIC__RA_Provability/CIC__Local_Theory/R04__Proof_Predicate.v&#45;&gt;/Users/wuksh/Monotyper/_INPUT/ProofcaseExport/theories/D001/CIC__RA_Provability/R03__Hilbert_Ackermann_Evaluation.v -->
<g id="edge41" class="edge">
<title>/Users/wuksh/Monotyper/_INPUT/ProofcaseExport/theories/D001/CIC__RA_Provability/CIC__Local_Theory/R04__Proof_Predicate.v&#45;&gt;/Users/wuksh/Monotyper/_INPUT/ProofcaseExport/theories/D001/CIC__RA_Provability/R03__Hilbert_Ackermann_Evaluation.v</title>
<path fill="none" stroke="black" d="M548.82,-719.62C558.46,-710.2 568.89,-697.7 574,-684 581.19,-664.74 580.91,-641.45 578.98,-623.53"/>
<polygon fill="black" stroke="black" points="582.48,-623.31 577.69,-613.86 575.54,-624.24 582.48,-623.31"/>
</g>
<!-- /Users/wuksh/Monotyper/_INPUT/ProofcaseExport/theories/D001/CIC__RA_Provability/CIC__Local_Theory/R04__Proof_Predicate.v&#45;&gt;/Users/wuksh/Monotyper/_INPUT/ProofcaseExport/theories/D001/CIC__RA_Provability/R01__Proof_Predicate.v -->
<g id="edge38" class="edge">
<title>/Users/wuksh/Monotyper/_INPUT/ProofcaseExport/theories/D001/CIC__RA_Provability/CIC__Local_Theory/R04__Proof_Predicate.v&#45;&gt;/Users/wuksh/Monotyper/_INPUT/ProofcaseExport/theories/D001/CIC__RA_Provability/R01__Proof_Predicate.v</title>
<path fill="none" stroke="black" d="M495.03,-719.52C477.97,-710.47 456.95,-699.32 438.66,-689.62"/>
<polygon fill="black" stroke="black" points="440.36,-686.56 429.89,-684.97 437.08,-692.75 440.36,-686.56"/>
</g>
<!-- /Users/wuksh/Monotyper/_INPUT/ProofcaseExport/theories/D001/CIC__RA_Provability/R05__Hilbert_Ackermann_Evaluation.v&#45;&gt;/Users/wuksh/Monotyper/_INPUT/ProofcaseExport/theories/D001/CIC__RA_Provability/R01__Proof_Theory_Input.v -->
<g id="edge29" class="edge">
<title>/Users/wuksh/Monotyper/_INPUT/ProofcaseExport/theories/D001/CIC__RA_Provability/R05__Hilbert_Ackermann_Evaluation.v&#45;&gt;/Users/wuksh/Monotyper/_INPUT/ProofcaseExport/theories/D001/CIC__RA_Provability/R01__Proof_Theory_Input.v</title>
<path fill="none" stroke="black" d="M552.48,-431.54C571.58,-389.46 612.46,-281.09 562,-216 551.18,-202.05 519.71,-191.13 484.52,-182.91"/>
<polygon fill="black" stroke="black" points="485.5,-179.55 474.98,-180.78 483.98,-186.38 485.5,-179.55"/>
</g>
<!-- /Users/wuksh/Monotyper/_INPUT/ProofcaseExport/theories/D001/CIC__RA_Provability/R05__Hilbert_Ackermann_Evaluation.v&#45;&gt;/Users/wuksh/Monotyper/_INPUT/ProofcaseExport/theories/D001/CIC__RA_Provability/R02__Carryless_Godel_Numbering.v -->
<g id="edge30" class="edge">
<title>/Users/wuksh/Monotyper/_INPUT/ProofcaseExport/theories/D001/CIC__RA_Provability/R05__Hilbert_Ackermann_Evaluation.v&#45;&gt;/Users/wuksh/Monotyper/_INPUT/ProofcaseExport/theories/D001/CIC__RA_Provability/R02__Carryless_Godel_Numbering.v</title>
<path fill="none" stroke="black" d="M475.32,-431.52C436.78,-421.71 388.53,-409.43 348.38,-399.21"/>
<polygon fill="black" stroke="black" points="349.31,-395.83 338.75,-396.76 347.58,-402.61 349.31,-395.83"/>
</g>
<!-- /Users/wuksh/Monotyper/_INPUT/ProofcaseExport/theories/D001/CIC__RA_Provability/CIC__Local_Theory/R05__Theoremhood.v&#45;&gt;/Users/wuksh/Monotyper/_INPUT/ProofcaseExport/theories/D001/CIC__RA_Provability/R01__Proof_Theory_Input.v -->
<g id="edge42" class="edge">
<title>/Users/wuksh/Monotyper/_INPUT/ProofcaseExport/theories/D001/CIC__RA_Provability/CIC__Local_Theory/R05__Theoremhood.v&#45;&gt;/Users/wuksh/Monotyper/_INPUT/ProofcaseExport/theories/D001/CIC__RA_Provability/R01__Proof_Theory_Input.v</title>
<path fill="none" stroke="black" d="M181.57,-935.52C114.57,-917.31 38,-881.15 38,-811 38,-811 38,-811 38,-305 38,-227.04 118.67,-191.59 198.74,-175.6"/>
<polygon fill="black" stroke="black" points="199.36,-179.05 208.54,-173.76 198.07,-172.17 199.36,-179.05"/>
</g>
<!-- /Users/wuksh/Monotyper/_INPUT/ProofcaseExport/theories/D001/CIC__RA_Provability/CIC__Local_Theory/R05__Theoremhood.v&#45;&gt;/Users/wuksh/Monotyper/_INPUT/ProofcaseExport/theories/D001/CIC__RA_Provability/R02__Carryless_Godel_Numbering.v -->
<g id="edge43" class="edge">
<title>/Users/wuksh/Monotyper/_INPUT/ProofcaseExport/theories/D001/CIC__RA_Provability/CIC__Local_Theory/R05__Theoremhood.v&#45;&gt;/Users/wuksh/Monotyper/_INPUT/ProofcaseExport/theories/D001/CIC__RA_Provability/R02__Carryless_Godel_Numbering.v</title>
<path fill="none" stroke="black" d="M192.4,-935.51C172.09,-927.68 152.27,-916.36 138,-900 111.35,-869.45 118,-851.54 118,-811 118,-811 118,-811 118,-593 118,-512.08 151.5,-494.41 203,-432 211.68,-421.48 222.74,-411.62 233.32,-403.33"/>
<polygon fill="black" stroke="black" points="235.33,-406.19 241.21,-397.38 231.12,-400.61 235.33,-406.19"/>
</g>
<!-- /Users/wuksh/Monotyper/_INPUT/ProofcaseExport/theories/D001/CIC__RA_Provability/CIC__Local_Theory/R05__Theoremhood.v&#45;&gt;/Users/wuksh/Monotyper/_INPUT/ProofcaseExport/theories/D001/CIC__RA_Provability/R03__Hilbert_Ackermann_Evaluation.v -->
<g id="edge45" class="edge">
<title>/Users/wuksh/Monotyper/_INPUT/ProofcaseExport/theories/D001/CIC__RA_Provability/CIC__Local_Theory/R05__Theoremhood.v&#45;&gt;/Users/wuksh/Monotyper/_INPUT/ProofcaseExport/theories/D001/CIC__RA_Provability/R03__Hilbert_Ackermann_Evaluation.v</title>
<path fill="none" stroke="black" d="M427.74,-935.54C560.92,-915.55 736,-876.76 736,-811 736,-811 736,-811 736,-737 736,-679.45 677.48,-639.79 630.78,-617.29"/>
<polygon fill="black" stroke="black" points="632.34,-614.16 621.8,-613.12 629.39,-620.51 632.34,-614.16"/>
</g>
<!-- /Users/wuksh/Monotyper/_INPUT/ProofcaseExport/theories/D001/CIC__RA_Provability/CIC__Local_Theory/R05__Theoremhood.v&#45;&gt;/Users/wuksh/Monotyper/_INPUT/ProofcaseExport/theories/D001/CIC__RA_Provability/R04__Proof_Predicate.v -->
<g id="edge46" class="edge">
<title>/Users/wuksh/Monotyper/_INPUT/ProofcaseExport/theories/D001/CIC__RA_Provability/CIC__Local_Theory/R05__Theoremhood.v&#45;&gt;/Users/wuksh/Monotyper/_INPUT/ProofcaseExport/theories/D001/CIC__RA_Provability/R04__Proof_Predicate.v</title>
<path fill="none" stroke="black" d="M351.86,-935.54C375.78,-927.39 401.52,-915.89 422,-900 443.09,-883.64 459.83,-858.11 470.58,-838.58"/>
<polygon fill="black" stroke="black" points="473.65,-840.26 475.21,-829.78 467.46,-837 473.65,-840.26"/>
</g>
<!-- /Users/wuksh/Monotyper/_INPUT/ProofcaseExport/theories/D001/CIC__RA_Provability/CIC__Local_Theory/R05__Theoremhood.v&#45;&gt;/Users/wuksh/Monotyper/_INPUT/ProofcaseExport/theories/D001/CIC__RA_Provability/R02__Theoremhood.v -->
<g id="edge44" class="edge">
<title>/Users/wuksh/Monotyper/_INPUT/ProofcaseExport/theories/D001/CIC__RA_Provability/CIC__Local_Theory/R05__Theoremhood.v&#45;&gt;/Users/wuksh/Monotyper/_INPUT/ProofcaseExport/theories/D001/CIC__RA_Provability/R02__Theoremhood.v</title>
<path fill="none" stroke="black" d="M280,-935.7C280,-928.41 280,-919.73 280,-911.54"/>
<polygon fill="black" stroke="black" points="283.5,-911.62 280,-901.62 276.5,-911.62 283.5,-911.62"/>
</g>
</g>
</svg>
